<svg width="0" height="0" class="hidden">
  <symbol id="heart" enable-background="new 0 0 512 512" xmlns="http://www.w3.org/2000/svg" xmlns:xlink="http://www.w3.org/1999/xlink" viewBox="0 0 512 512">
    <linearGradient id="SVGID_1_" gradientUnits="userSpaceOnUse" x1="256" x2="256" y1="512" y2="0">
      <stop offset="0" stop-color="#fd3a84"></stop>
      <stop offset="1" stop-color="#ffa68d"></stop>
    </linearGradient>
    <linearGradient id="SVGID_2_" gradientUnits="userSpaceOnUse" x1="256" x2="256" y1="421" y2="121">
      <stop offset="0" stop-color="#ffc2cc"></stop>
      <stop offset="1" stop-color="#fff2f4"></stop>
    </linearGradient>
    <g>
      <g>
        <g>
          <circle cx="256" cy="256" fill="url(#SVGID_1_)" r="256"></circle>
        </g>
      </g>
      <g>
        <g>
          <path d="m331 121c-32.928 0-58.183 18.511-75 46.058-16.82-27.552-42.077-46.058-75-46.058-25.511 0-48.788 10.768-65.541 30.32-15.772 18.409-24.459 42.993-24.459 69.225 0 28.523 10.698 54.892 33.666 82.986 20.138 24.632 49.048 49.971 82.524 79.313 12.376 10.848 25.174 22.065 38.775 34.306 2.853 2.567 6.444 3.85 10.035 3.85s7.182-1.283 10.035-3.851c13.601-12.241 26.398-23.458 38.775-34.306 33.476-29.341 62.386-54.681 82.524-79.313 22.968-28.092 33.666-54.462 33.666-82.985 0-53.637-36.748-99.545-90-99.545z" fill="url(#SVGID_2_)"></path>
        </g>
      </g>
    </g>
  </symbol>
  <symbol version="1.1" id="house" xmlns="http://www.w3.org/2000/svg" xmlns:xlink="http://www.w3.org/1999/xlink" x="0px" y="0px" xml:space="preserve" viewBox="0 0 463.937 463.937">
    <g>
      <g>
        <path d="M460.414,216.518l-85.6-73.1c0.1-0.5,0.2-1,0.3-1.6v-95.6c-0.1-5.7-4.6-10.3-10.3-10.5h-47.8c-5.5,0-10,4.9-10,10.5v39.6
			l-68.5-58.4c-3.7-3.2-9.2-3.2-13,0l-221.9,189c-4.3,3.5-4.8,9.8-1.3,14.1s9.8,4.8,14.1,1.3c0.1-0.1,0.1-0.1,0.2-0.2l215.4-183.4
			l77.1,65.7l46.1,39.2l92.3,78.6c4.2,3.6,10.5,3.1,14.1-1.1C465.114,226.418,464.614,220.118,460.414,216.518z M355.014,126.518
			l-28-23.6v-47.1h28V126.518z"></path>
      </g>
    </g>
    <g>
      <g>
        <path d="M416.314,236.718l-28.1-24l-149.7-127.9c-3.7-3.2-9.2-3.2-13,0l-149.7,127.9l-28.1,24c-4.2,3.6-4.7,9.9-1.1,14.1
			c3.5,4.2,9.7,4.7,13.8,1.2l0.1-0.1l12.5-10.8v187.5c0.1,5.6,4.7,10.2,10.3,10.3h297.3c5.6-0.1,10.2-4.6,10.3-10.3v-187.5
			l12.5,10.8c1.8,1.5,4,2.4,6.4,2.4c2.9,0,5.7-1.3,7.6-3.5C421.114,246.518,420.514,240.218,416.314,236.718z M272.014,418.818h-80
			v-108h80V418.818z M292.014,418.818v-117.7c0-5.5-4.1-10.3-9.6-10.3h-100.8c-5.5,0-9.6,4.8-9.6,10.3v117.7h-79v-194.8l139-118.4
			l139,118.4v194.8H292.014z"></path>
      </g>
    </g>
    <g></g>
    <g></g>
    <g></g>
    <g></g>
    <g></g>
    <g></g>
    <g></g>
    <g></g>
    <g></g>
    <g></g>
    <g></g>
    <g></g>
    <g></g>
    <g></g>
    <g></g>
  </symbol>
  <symbol version="1.1" id="list" xmlns="http://www.w3.org/2000/svg" xmlns:xlink="http://www.w3.org/1999/xlink" x="0px" y="0px" xml:space="preserve" viewBox="0 0 60.123 60.123">
    <g>
      <path d="M57.124,51.893H16.92c-1.657,0-3-1.343-3-3s1.343-3,3-3h40.203c1.657,0,3,1.343,3,3S58.781,51.893,57.124,51.893z"></path>
      <path d="M57.124,33.062H16.92c-1.657,0-3-1.343-3-3s1.343-3,3-3h40.203c1.657,0,3,1.343,3,3
		C60.124,31.719,58.781,33.062,57.124,33.062z"></path>
      <path d="M57.124,14.231H16.92c-1.657,0-3-1.343-3-3s1.343-3,3-3h40.203c1.657,0,3,1.343,3,3S58.781,14.231,57.124,14.231z"></path>
      <circle cx="4.029" cy="11.463" r="4.029"></circle>
      <circle cx="4.029" cy="30.062" r="4.029"></circle>
      <circle cx="4.029" cy="48.661" r="4.029"></circle>
    </g>
    <g></g>
    <g></g>
    <g></g>
    <g></g>
    <g></g>
    <g></g>
    <g></g>
    <g></g>
    <g></g>
    <g></g>
    <g></g>
    <g></g>
    <g></g>
    <g></g>
    <g></g>
  </symbol>
  <symbol version="1.1" id="logout" xmlns="http://www.w3.org/2000/svg" xmlns:xlink="http://www.w3.org/1999/xlink" x="0px" y="0px" xml:space="preserve" viewBox="0 0 96.943 96.943">
    <g>
      <g>
        <path d="M61.168,83.92H11.364V13.025H61.17c1.104,0,2-0.896,2-2V3.66c0-1.104-0.896-2-2-2H2c-1.104,0-2,0.896-2,2v89.623
			c0,1.104,0.896,2,2,2h59.168c1.105,0,2-0.896,2-2V85.92C63.168,84.814,62.274,83.92,61.168,83.92z"></path>
        <path d="M96.355,47.058l-26.922-26.92c-0.75-0.751-2.078-0.75-2.828,0l-6.387,6.388c-0.781,0.781-0.781,2.047,0,2.828
			l12.16,12.162H19.737c-1.104,0-2,0.896-2,2v9.912c0,1.104,0.896,2,2,2h52.644L60.221,67.59c-0.781,0.781-0.781,2.047,0,2.828
			l6.387,6.389c0.375,0.375,0.885,0.586,1.414,0.586c0.531,0,1.039-0.211,1.414-0.586l26.922-26.92
			c0.375-0.375,0.586-0.885,0.586-1.414C96.943,47.941,96.73,47.433,96.355,47.058z"></path>
      </g>
    </g>
    <g></g>
    <g></g>
    <g></g>
    <g></g>
    <g></g>
    <g></g>
    <g></g>
    <g></g>
    <g></g>
    <g></g>
    <g></g>
    <g></g>
    <g></g>
    <g></g>
    <g></g>
  </symbol>
  <symbol version="1.1" id="loupe" xmlns="http://www.w3.org/2000/svg" xmlns:xlink="http://www.w3.org/1999/xlink" x="0px" y="0px" xml:space="preserve" viewBox="0 0 513.28 513.28">
    <g>
      <g>
        <path d="M495.04,404.48L410.56,320c15.36-30.72,25.6-66.56,25.6-102.4C436.16,97.28,338.88,0,218.56,0S0.96,97.28,0.96,217.6
			s97.28,217.6,217.6,217.6c35.84,0,71.68-10.24,102.4-25.6l84.48,84.48c25.6,25.6,64,25.6,89.6,0
			C518.08,468.48,518.08,430.08,495.04,404.48z M218.56,384c-92.16,0-166.4-74.24-166.4-166.4S126.4,51.2,218.56,51.2
			s166.4,74.24,166.4,166.4S310.72,384,218.56,384z"></path>
      </g>
    </g>
    <g></g>
    <g></g>
    <g></g>
    <g></g>
    <g></g>
    <g></g>
    <g></g>
    <g></g>
    <g></g>
    <g></g>
    <g></g>
    <g></g>
    <g></g>
    <g></g>
    <g></g>
  </symbol>
  <symbol id="open-box" enable-background="new 0 0 512.002 512.002" xmlns="http://www.w3.org/2000/svg" viewBox="0 0 512.002 512.002">
    <g>
      <path d="m511.994 139.957c-.042-2.496-1.369-4.876-3.481-6.213l-158.6-100.428c-.777-.492-1.638-.837-2.54-1.018l-160.543-32.14c-7.955-1.596-12.335 9.352-5.484 13.69l71.847 45.494-57.841 17.166-48.998-31.026c-2.484-1.573-5.659-1.549-8.12.061l-59.406 38.886c-7.853 5.14.005 17.925 8.215 12.551l55.367-36.241 144.679 91.612-121.055 79.237-144.679-91.612 32.581-21.326c7.853-5.14-.005-17.925-8.215-12.551l-42.327 27.706c-2.082 1.361-3.393 3.79-3.393 6.275v264.004c0 2.57 1.316 4.961 3.488 6.336l158.601 100.428c1.796 1.136 4.112 1.46 6.146.854l274.923-81.589c8.998-2.67 5.139-17.174-4.268-14.38l-265.29 78.73v-248.358l323.399-95.976v248.357l-20.479 6.078c-8.997 2.67-5.141 17.17 4.268 14.38l25.846-7.67c3.183-.944 5.366-3.87 5.366-7.19v-264.004c0-.041-.006-.082-.007-.123zm-168.93-93.223 123.271 78.057-119.54-23.933-123.271-78.057zm-38.109 99.176-92.779-58.748 57.841-17.166 69.929 44.28c.777.492 1.638.837 2.54 1.018l130.882 26.203-260.347 77.263 92.029-60.238c2.134-1.397 3.412-3.782 3.393-6.332s-1.333-4.916-3.488-6.28zm-289.954 7.796 143.601 90.929v246.25l-143.601-90.928z"></path>
      <path d="m466.654 293.54c-1.898-1.416-4.354-1.852-6.623-1.176l-253.737 75.506c-3.18.946-5.361 3.87-5.361 7.188v73.185c0 2.368 1.118 4.597 3.016 6.012 1.311.978 2.887 1.488 4.484 1.488.716 0 1.436-.103 2.139-.312l253.737-75.506c3.18-.946 5.361-3.87 5.361-7.188v-73.185c0-2.368-1.118-4.597-3.016-6.012zm-11.984 73.604-238.737 71.042v-57.535l238.737-71.042z"></path>
      <path d="m291.679 405.335c4.142 0 7.5-3.358 7.5-7.5v-21.253c0-9.385-15-9.813-15 0v21.253c0 4.143 3.358 7.5 7.5 7.5z"></path>
      <path d="m391.21 374.829c4.142 0 7.5-3.358 7.5-7.5v-21.254c0-9.385-15-9.813-15 0v21.254c0 4.142 3.358 7.5 7.5 7.5z"></path>
      <path d="m413.346 368.829c4.142 0 7.5-3.358 7.5-7.5v-21.254c0-9.385-15-9.813-15 0v21.254c0 4.142 3.358 7.5 7.5 7.5z"></path>
      <path d="m435.482 362.829c4.142 0 7.5-3.358 7.5-7.5v-21.254c0-9.385-15-9.813-15 0v21.254c0 4.142 3.358 7.5 7.5 7.5z"></path>
      <path d="m235.335 422.099c4.142 0 7.5-3.358 7.5-7.5v-21.253c0-9.385-15-9.813-15 0v21.253c0 4.142 3.358 7.5 7.5 7.5z"></path>
      <path d="m257.013 416.765c4.142 0 7.5-3.358 7.5-7.5v-21.253c0-9.385-15-9.813-15 0v21.253c0 4.142 3.358 7.5 7.5 7.5z"></path>
      <path d="m330.843 393.227c4.142 0 7.5-3.358 7.5-7.5v-21.253c0-9.385-15-9.813-15 0v21.253c0 4.142 3.358 7.5 7.5 7.5z"></path>
      <path d="m352.046 387.797c4.142 0 7.5-3.358 7.5-7.5v-21.253c0-9.385-15-9.813-15 0v21.253c0 4.142 3.358 7.5 7.5 7.5z"></path>
    </g>
  </symbol>
  <symbol version="1.1" id="round-account-button-with-user-inside" xmlns="http://www.w3.org/2000/svg" xmlns:xlink="http://www.w3.org/1999/xlink" x="0px" y="0px" xml:space="preserve" viewBox="0 0 510 510">
    <g>
      <g id="account-circle">
        <path d="M255,0C114.75,0,0,114.75,0,255s114.75,255,255,255s255-114.75,255-255S395.25,0,255,0z M255,76.5
			c43.35,0,76.5,33.15,76.5,76.5s-33.15,76.5-76.5,76.5c-43.35,0-76.5-33.15-76.5-76.5S211.65,76.5,255,76.5z M255,438.6
			c-63.75,0-119.85-33.149-153-81.6c0-51,102-79.05,153-79.05S408,306,408,357C374.85,405.45,318.75,438.6,255,438.6z"></path>
      </g>
    </g>
    <g></g>
    <g></g>
    <g></g>
    <g></g>
    <g></g>
    <g></g>
    <g></g>
    <g></g>
    <g></g>
    <g></g>
    <g></g>
    <g></g>
    <g></g>
    <g></g>
    <g></g>
  </symbol>
  <symbol version="1.1" id="shopping-cart" xmlns="http://www.w3.org/2000/svg" xmlns:xlink="http://www.w3.org/1999/xlink" x="0px" y="0px" xml:space="preserve" viewBox="0 0 511.997 511.997">
    <g>
      <g>
        <path d="M405.387,362.612c-35.202,0-63.84,28.639-63.84,63.84s28.639,63.84,63.84,63.84s63.84-28.639,63.84-63.84
			S440.588,362.612,405.387,362.612z M405.387,451.988c-14.083,0-25.536-11.453-25.536-25.536s11.453-25.536,25.536-25.536
			c14.083,0,25.536,11.453,25.536,25.536S419.47,451.988,405.387,451.988z"></path>
      </g>
    </g>
    <g>
      <g>
        <path d="M507.927,115.875c-3.626-4.641-9.187-7.348-15.079-7.348H118.22l-17.237-72.12c-2.062-8.618-9.768-14.702-18.629-14.702
			H19.152C8.574,21.704,0,30.278,0,40.856s8.574,19.152,19.152,19.152h48.085l62.244,260.443
			c2.062,8.625,9.768,14.702,18.629,14.702h298.135c8.804,0,16.477-6.001,18.59-14.543l46.604-188.329
			C512.849,126.562,511.553,120.516,507.927,115.875z M431.261,296.85H163.227l-35.853-150.019h341.003L431.261,296.85z"></path>
      </g>
    </g>
    <g>
      <g>
        <path d="M173.646,362.612c-35.202,0-63.84,28.639-63.84,63.84s28.639,63.84,63.84,63.84s63.84-28.639,63.84-63.84
			S208.847,362.612,173.646,362.612z M173.646,451.988c-14.083,0-25.536-11.453-25.536-25.536s11.453-25.536,25.536-25.536
			s25.536,11.453,25.536,25.536S187.729,451.988,173.646,451.988z"></path>
      </g>
    </g>
    <g></g>
    <g></g>
    <g></g>
    <g></g>
    <g></g>
    <g></g>
    <g></g>
    <g></g>
    <g></g>
    <g></g>
    <g></g>
    <g></g>
    <g></g>
    <g></g>
    <g></g>
  </symbol>
  <symbol version="1.1" id="tick-inside-circle" xmlns="http://www.w3.org/2000/svg" xmlns:xlink="http://www.w3.org/1999/xlink" x="0px" y="0px" xml:space="preserve" viewBox="0 0 510 510">
    <g>
      <g id="check-circle-outline">
        <path d="M150.45,206.55l-35.7,35.7L229.5,357l255-255l-35.7-35.7L229.5,285.6L150.45,206.55z M459,255c0,112.2-91.8,204-204,204
			S51,367.2,51,255S142.8,51,255,51c20.4,0,38.25,2.55,56.1,7.65l40.801-40.8C321.3,7.65,288.15,0,255,0C114.75,0,0,114.75,0,255
			s114.75,255,255,255s255-114.75,255-255H459z"></path>
      </g>
    </g>
    <g></g>
    <g></g>
    <g></g>
    <g></g>
    <g></g>
    <g></g>
    <g></g>
    <g></g>
    <g></g>
    <g></g>
    <g></g>
    <g></g>
    <g></g>
    <g></g>
    <g></g>
  </symbol>
  <symbol id="trolley" xmlns="http://www.w3.org/2000/svg" viewBox="0 0 24 24">
    <path d="m19.091 19h-8.994c-1.297 0-2.447-.851-2.798-2.07l-3.04-10.301c-.108-.373-.467-.629-.877-.629h-2.382c-.553 0-1-.448-1-1s.447-1 1-1h2.382c1.297 0 2.446.851 2.797 2.07l.569 1.93h15.295c.624 0 1.216.297 1.583.795.364.494.469 1.112.288 1.696l-2.063 6.548c-.404 1.182-1.511 1.961-2.76 1.961zm2.953-9h.01z"></path>
    <path d="m11 24c-1.103 0-2-.897-2-2s.897-2 2-2 2 .897 2 2-.897 2-2 2zm0-2.001v.001z"></path>
    <path d="m18 24c-1.103 0-2-.897-2-2s.897-2 2-2 2 .897 2 2-.897 2-2 2zm0-2.001v.001z"></path>
  </symbol>
  <symbol version="1.1" id="user" xmlns="http://www.w3.org/2000/svg" xmlns:xlink="http://www.w3.org/1999/xlink" x="0px" y="0px" xml:space="preserve" viewBox="0 0 490.667 490.667">
    <g>
      <g>
        <path d="M245.333,85.333c-41.173,0-74.667,33.493-74.667,74.667s33.493,74.667,74.667,74.667S320,201.173,320,160
			C320,118.827,286.507,85.333,245.333,85.333z M245.333,213.333C215.936,213.333,192,189.397,192,160
			c0-29.397,23.936-53.333,53.333-53.333s53.333,23.936,53.333,53.333S274.731,213.333,245.333,213.333z"></path>
      </g>
    </g>
    <g>
      <g>
        <path d="M394.667,170.667c-29.397,0-53.333,23.936-53.333,53.333s23.936,53.333,53.333,53.333S448,253.397,448,224
			S424.064,170.667,394.667,170.667z M394.667,256c-17.643,0-32-14.357-32-32c0-17.643,14.357-32,32-32s32,14.357,32,32
			C426.667,241.643,412.309,256,394.667,256z"></path>
      </g>
    </g>
    <g>
      <g>
        <path d="M97.515,170.667c-29.419,0-53.333,23.936-53.333,53.333s23.936,53.333,53.333,53.333s53.333-23.936,53.333-53.333
			S126.933,170.667,97.515,170.667z M97.515,256c-17.643,0-32-14.357-32-32c0-17.643,14.357-32,32-32c17.643,0,32,14.357,32,32
			C129.515,241.643,115.157,256,97.515,256z"></path>
      </g>
    </g>
    <g>
      <g>
        <path d="M245.333,256c-76.459,0-138.667,62.208-138.667,138.667c0,5.888,4.779,10.667,10.667,10.667S128,400.555,128,394.667
			c0-64.704,52.629-117.333,117.333-117.333s117.333,52.629,117.333,117.333c0,5.888,4.779,10.667,10.667,10.667
			c5.888,0,10.667-4.779,10.667-10.667C384,318.208,321.792,256,245.333,256z"></path>
      </g>
    </g>
    <g>
      <g>
        <path d="M394.667,298.667c-17.557,0-34.752,4.8-49.728,13.867c-5.013,3.072-6.635,9.621-3.584,14.656
			c3.093,5.035,9.621,6.635,14.656,3.584C367.637,323.712,380.992,320,394.667,320c41.173,0,74.667,33.493,74.667,74.667
			c0,5.888,4.779,10.667,10.667,10.667c5.888,0,10.667-4.779,10.667-10.667C490.667,341.739,447.595,298.667,394.667,298.667z"></path>
      </g>
    </g>
    <g>
      <g>
        <path d="M145.707,312.512c-14.955-9.045-32.149-13.845-49.707-13.845c-52.928,0-96,43.072-96,96
			c0,5.888,4.779,10.667,10.667,10.667s10.667-4.779,10.667-10.667C21.333,353.493,54.827,320,96,320
			c13.675,0,27.029,3.712,38.635,10.752c5.013,3.051,11.584,1.451,14.656-3.584C152.363,322.133,150.741,315.584,145.707,312.512z"></path>
      </g>
    </g>
    <g></g>
    <g></g>
    <g></g>
    <g></g>
    <g></g>
    <g></g>
    <g></g>
    <g></g>
    <g></g>
    <g></g>
    <g></g>
    <g></g>
    <g></g>
    <g></g>
    <g></g>
  </symbol>
  <symbol id="burger" enable-background="new 0 0 512 512" xmlns="http://www.w3.org/2000/svg" viewBox="0 0 512 512">
    <path d="m464.883 64.267h-417.766c-25.98 0-47.117 21.136-47.117 47.149 0 25.98 21.137 47.117 47.117 47.117h417.766c25.98 0 47.117-21.137 47.117-47.117 0-26.013-21.137-47.149-47.117-47.149z"></path>
    <path d="m464.883 208.867h-417.766c-25.98 0-47.117 21.136-47.117 47.149 0 25.98 21.137 47.117 47.117 47.117h417.766c25.98 0 47.117-21.137 47.117-47.117 0-26.013-21.137-47.149-47.117-47.149z"></path>
    <path d="m464.883 353.467h-417.766c-25.98 0-47.117 21.137-47.117 47.149 0 25.98 21.137 47.117 47.117 47.117h417.766c25.98 0 47.117-21.137 47.117-47.117 0-26.012-21.137-47.149-47.117-47.149z"></path>
  </symbol>
  <symbol version="1.1" id="email" xmlns="http://www.w3.org/2000/svg" xmlns:xlink="http://www.w3.org/1999/xlink" x="0px" y="0px" xml:space="preserve" viewBox="0 0 512.021 512.021">
    <path d="M338.214,344.556l-64-64.107c-4.16-4.171-10.914-4.179-15.085-0.019
	c-2.006,2.001-3.133,4.717-3.134,7.55v149.44c0.003,4.589,2.942,8.662,7.296,10.112c1.086,0.367,2.224,0.555,3.371,0.555
	c3.357,0,6.519-1.581,8.533-4.267l64-85.333C342.376,354.244,341.958,348.31,338.214,344.556z"></path>
    <path d="M291.366,320.641l-64-21.333c-5.587-1.868-11.631,1.147-13.499,6.734
	c-0.732,2.19-0.734,4.558-0.005,6.749l42.667,128c1.453,4.362,5.536,7.302,10.133,7.296h0.661c4.819-0.3,8.836-3.8,9.792-8.533
	l21.333-106.667C299.523,327.601,296.483,322.345,291.366,320.641z"></path>
    <path d="M507.43,23.446c-3.399-2.377-7.867-2.568-11.456-0.491L90.641,257.622
	c-5.096,2.955-6.832,9.482-3.877,14.578c1.306,2.253,3.391,3.95,5.861,4.771l191.573,63.872l148.907,63.829
	c5.417,2.316,11.685-0.197,14.001-5.614c0.321-0.752,0.555-1.538,0.697-2.343l64-362.667
	C512.531,29.965,510.825,25.829,507.43,23.446z"></path>
    <g>
      <path d="M510.011,38.38c3.441-4.781,2.355-11.447-2.426-14.889c-4.259-3.065-10.115-2.578-13.808,1.15
		L215.611,318.017l80.277,27.733L510.011,38.38z"></path>
      <path d="M26.065,420.246c-2.679,0.003-5.26-1.003-7.232-2.816c-5.319-4.892-10.553-9.92-15.701-15.083
		c-4.171-4.165-4.176-10.922-0.011-15.093c4.165-4.171,10.922-4.176,15.093-0.011c4.949,4.949,9.984,9.792,15.083,14.485
		c4.336,3.988,4.618,10.736,0.63,15.072C31.904,418.999,29.052,420.249,26.065,420.246z"></path>
      <path d="M171.387,490.54c-10.278-0.033-20.527-1.098-30.592-3.179c-5.814-0.95-9.757-6.434-8.806-12.248
		c0.95-5.814,6.434-9.757,12.248-8.806c0.277,0.045,0.553,0.102,0.825,0.169c8.683,1.792,17.524,2.707,26.389,2.731h0.064h4.8
		c5.559-0.531,10.497,3.545,11.028,9.104c0.037,0.385,0.051,0.771,0.044,1.157c0.216,5.884-4.377,10.831-10.261,11.051h-5.568
		L171.387,490.54z M94.95,470.124c-1.708,0-3.39-0.409-4.907-1.195c-10.486-5.487-20.611-11.636-30.315-18.411
		c-4.727-3.515-5.709-10.197-2.194-14.925c3.355-4.511,9.634-5.644,14.354-2.59c8.937,6.286,18.272,11.987,27.947,17.067
		c5.231,2.709,7.276,9.146,4.567,14.377c-1.833,3.54-5.487,5.762-9.474,5.762L94.95,470.124z"></path>
      <path d="M226.235,479.105c-5.891,0.048-10.705-4.688-10.753-10.579c-0.035-4.307,2.524-8.213,6.487-9.901
		c6.141-2.627,12.105-5.648,17.856-9.045c5.146-2.867,11.642-1.019,14.509,4.127c2.767,4.967,1.152,11.231-3.672,14.241
		c-6.542,3.867-13.325,7.309-20.309,10.304C229.05,478.806,227.651,479.097,226.235,479.105z"></path>
    </g>
    <g></g>
    <g></g>
    <g></g>
    <g></g>
    <g></g>
    <g></g>
    <g></g>
    <g></g>
    <g></g>
    <g></g>
    <g></g>
    <g></g>
    <g></g>
    <g></g>
    <g></g>
  </symbol>
</svg>